<svg width="512" height="97" viewBox="0 0 512 97" fill="none" xmlns="http://www.w3.org/2000/svg">
<path d="M40.754 20.0032H40.7617C43.6122 10.0381 56.0334 5.17383 68.6913 5.17383C77.4381 5.17383 85.2899 7.94286 90.6728 12.3389C87.4604 12.4904 84.2887 13.1207 81.2625 14.2091C85.612 15.8257 89.3484 18.3128 92.1174 21.3896C90.0283 21.03 87.9098 20.8698 85.7904 20.9111C90.9995 28.4568 93.7825 37.4121 93.7677 46.5812C93.7677 71.5813 73.5012 91.8479 48.501 91.8479C23.8863 91.8479 3.23438 71.2386 3.23438 46.5812C3.23438 42.687 3.75171 38.666 4.75663 34.8946C5.02047 34.1031 5.38777 33.3439 5.87536 33.0659C6.48582 32.7179 7.04195 33.7552 7.13119 34.0928C7.79308 36.5721 8.68369 38.9846 9.79158 41.2992C9.69458 36.1311 11.9023 31.4233 14.939 27.3519C16.9644 24.6372 18.8423 22.1217 19.7089 14.8622C19.7671 14.3746 20.2288 14.0241 20.6957 14.1767C27.2865 16.334 30.8095 27.3092 30.2625 36.4867C33.9032 37.0079 33.8864 33.2042 33.8864 33.2042C32.7224 29.6269 33.4984 22.9779 40.741 20.0032H40.754Z" fill="url(#paint0_linear_4405_21141)"/>
<path opacity="0.9" d="M92.2875 35.0547C93.3881 59.9514 72.9211 81.4168 47.9637 81.4168C24.5996 81.4168 5.4544 63.358 3.72262 40.4375C3.41366 42.5839 3.25119 44.7487 3.23633 46.9171C3.41351 71.4413 24.015 91.8488 48.503 91.8488C73.5031 91.8488 93.7697 71.5823 93.7697 46.5822C93.7697 42.5987 93.2536 38.7355 92.2875 35.0547Z" fill="url(#paint1_radial_4405_21141)"/>
<path style="mix-blend-mode:screen" d="M47.3972 23.3025C46.9096 22.4398 44.658 21.1633 43.6737 20.9409C47.3985 9.00986 66.3743 5.34714 77.9884 7.45786C82.8216 8.33732 88.8408 10.9705 90.6722 12.3389C85.2893 7.94286 77.4362 5.17383 68.6907 5.17383C56.0328 5.17383 43.6116 10.0381 40.7611 20.0032H40.7404C33.4978 22.9779 32.7218 29.6295 33.8858 33.2055C35.0032 28.9388 40.3201 23.6957 47.3972 23.3025Z" fill="url(#paint2_radial_4405_21141)"/>
<path d="M60.5517 15.0627C50.3835 17.0635 47.061 17.7179 43.6582 20.9526C47.48 10.8348 57.2356 8.7836 68.8601 13.3956C66.0935 13.9659 63.324 14.522 60.5517 15.064V15.0627Z" fill="url(#paint3_linear_4405_21141)"/>
<path d="M5.69073 33.5095C2.91265 44.8831 5.05958 58.251 17.6799 69.4693C13.9228 65.3604 9.33535 50.1896 19.4583 39.3515C20.1399 38.6207 21.3129 39.1575 21.3504 40.1559C22.1846 62.6806 40.3598 76.4378 61.3144 73.8654C54.8219 73.5007 33.35 65.9799 49.3226 63.0052C57.6711 61.4494 70.7609 59.0114 70.7609 47.2654C70.7609 28.2249 56.0389 22.6584 47.111 23.4862C41.0013 24.0526 35.5629 27.93 33.8893 33.203C34.5321 35.2814 31.97 36.7364 30.2615 36.4919C30.8099 27.3157 27.2868 16.334 20.6947 14.1767C20.2291 14.0241 19.7661 14.3746 19.7079 14.8622C18.8413 22.1217 16.9634 24.6372 14.9394 27.3519C11.9013 31.4246 9.6936 36.1311 9.7906 41.2992C8.68274 38.9846 7.79213 36.5721 7.13021 34.0928C7.05649 33.8134 6.65168 33.0335 6.1628 32.9973C5.89766 32.9779 5.75669 33.2366 5.69073 33.5095Z" fill="url(#paint4_radial_4405_21141)"/>
<path style="mix-blend-mode:screen" d="M43.7129 64.1581C56.0047 74.1387 80.7242 66.6555 80.7242 42.3887C70.7448 57.5155 58.034 67.9501 43.7142 64.1581H43.7129Z" fill="url(#paint5_linear_4405_21141)"/>
<path style="mix-blend-mode:screen" d="M19.4585 39.3506C19.5703 39.2256 19.7111 39.13 19.8685 39.0722C20.0259 39.0145 20.1952 38.9964 20.3613 39.0195C11.3002 50.0711 18.6088 69.4801 23.6243 74.2486C23.905 75.0427 18.8662 70.9131 18.1716 69.947C14.3563 66.7098 8.8881 50.6686 19.4585 39.3506Z" fill="url(#paint6_linear_4405_21141)"/>
<path d="M48.5004 65.0719C60.7949 65.0719 70.7626 56.9394 70.7626 46.9071C70.7626 36.8747 60.7949 28.7422 48.5004 28.7422C38.0115 28.7422 26.2331 35.5658 26.2383 47.1722C26.2435 65.1068 45.1908 75.4251 61.3419 73.8627C60.1288 73.7217 52.5602 73.3195 47.4451 67.5331C46.9833 67.0119 46.1828 66.1014 46.5462 65.5104C46.9083 64.9193 47.9068 65.0706 48.4991 65.0706L48.5004 65.0719Z" fill="url(#paint7_linear_4405_21141)"/>
<path opacity="0.6" d="M68.3374 38.6525L50.7429 55.4891C49.1819 56.5988 47.5199 56.679 45.88 55.6728L28.623 38.7146C29.1154 37.9233 29.6689 37.1718 30.2785 36.4668L32.0892 38.1611C36.621 42.4084 40.285 45.8396 45.4493 50.2473C47.7799 52.2364 48.5042 52.1976 50.7908 50.2473C56.6987 45.2033 61.0198 41.3879 66.6367 36.3711C67.2628 37.0858 67.831 37.8491 68.3361 38.6538L68.3374 38.6525Z" fill="white"/>
<mask id="mask0_4405_21141" style="mask-type:luminance" maskUnits="userSpaceOnUse" x="26" y="38" width="45" height="37">
<path d="M70.7648 46.9075C70.7648 56.9398 60.7971 65.0723 48.5026 65.0723C47.909 65.0723 46.9118 64.9197 46.5484 65.5121C46.185 66.1018 46.9856 67.0123 47.4473 67.5335C52.2533 72.9707 59.2257 73.6549 61.0557 73.8347L61.3441 73.8631C45.193 75.4255 26.2457 65.1072 26.2405 47.1726C26.2236 44.1865 27.0547 41.257 28.637 38.7245L45.978 54.4748C47.2119 55.5948 49.2903 55.5948 50.5241 54.4748L68.1936 38.4258C69.8362 40.9581 70.7648 43.8449 70.7648 46.9075Z" fill="white"/>
</mask>
<g mask="url(#mask0_4405_21141)">
<path opacity="0.7" d="M21.082 25.957H77.3511V76.9752H21.082V25.957Z" fill="url(#paint8_linear_4405_21141)"/>
<g filter="url(#filter0_f_4405_21141)">
<path fill-rule="evenodd" clip-rule="evenodd" d="M43.332 54.5805C40.0534 51.1687 30.2344 39.8326 30.2344 39.8326L30.9936 39.8662L46.3661 51.3471C47.5172 52.1839 49.1597 52.1749 50.3004 51.3277L65.3742 39.8817L66.1735 39.8184C66.1735 39.8184 56.6753 50.8854 53.0371 54.5313C49.399 58.1772 46.6106 57.9923 43.332 54.5805Z" fill="#458FCD"/>
</g>
</g>
<path d="M51.6258 19.656C54.0081 18.9058 53.7986 16.5481 53.7986 16.5481C53.7986 16.5481 52.6074 15.1448 50.2471 15.9221C48.038 16.6502 47.6953 18.2242 47.6953 18.2242C47.6953 18.2242 48.902 20.5134 51.6258 19.656Z" fill="white"/>
<g clip-path="url(#clip0_4405_21141)">
<path d="M133.81 36.0612H119.531V28.6616H156.139V36.0612H141.924V73.2539H133.81V36.0612ZM181.237 38.9172C183.661 38.9172 185.803 39.4797 187.663 40.6048C189.567 41.6866 191.039 43.2228 192.077 45.2133C193.159 47.1606 193.7 49.3891 193.7 51.8989V73.2539H185.976V53.4567C185.976 51.1633 185.327 49.3026 184.029 47.8746C182.73 46.4033 181.043 45.6677 178.966 45.6677C176.672 45.6677 174.725 46.3817 173.124 47.8097C171.566 49.1944 170.787 50.9037 170.787 52.9375V73.2539H162.868V27.8827H170.787V44.2397C171.826 42.6386 173.275 41.3621 175.136 40.4101C176.997 39.4148 179.031 38.9172 181.237 38.9172ZM231.086 39.6961V73.2539H223.103V68.8401C222.064 70.4412 220.614 71.7177 218.754 72.6697C216.936 73.5784 214.924 74.0328 212.717 74.0328C210.294 74.0328 208.13 73.4919 206.226 72.4101C204.366 71.285 202.894 69.7488 201.812 67.8016C200.774 65.811 200.255 63.5609 200.255 61.0511V39.6961H207.914V59.4933C207.914 61.7867 208.563 63.6691 209.861 65.1403C211.203 66.5683 212.912 67.2823 214.989 67.2823C217.282 67.2823 219.208 66.5899 220.766 65.2052C222.324 63.7772 223.103 62.0463 223.103 60.0125V39.6961H231.086ZM257.056 38.9172C259.48 38.9172 261.643 39.4797 263.547 40.6048C265.451 41.6866 266.923 43.2228 267.961 45.2133C269.043 47.1606 269.584 49.3891 269.584 51.8989V73.2539H261.86V53.4567C261.86 51.1633 261.189 49.3026 259.847 47.8746C258.549 46.4033 256.862 45.6677 254.785 45.6677C252.491 45.6677 250.566 46.3817 249.008 47.8097C247.45 49.1944 246.671 50.9037 246.671 52.9375V73.2539H238.752V39.6961H246.671V44.1099C247.71 42.5088 249.138 41.2539 250.955 40.3452C252.816 39.3932 254.849 38.9172 257.056 38.9172ZM309.964 27.8827V73.2539H302.045V67.9963C300.747 69.9003 299.081 71.3932 297.047 72.475C295.056 73.5135 292.849 74.0328 290.426 74.0328C287.484 74.0328 284.844 73.2972 282.507 71.8259C280.17 70.3114 278.331 68.2127 276.99 65.5298C275.649 62.8469 274.978 59.8178 274.978 56.4425C274.978 53.0673 275.649 50.0599 276.99 47.4202C278.331 44.7373 280.17 42.6603 282.507 41.189C284.844 39.6745 287.484 38.9172 290.426 38.9172C292.849 38.9172 295.056 39.4581 297.047 40.5399C299.081 41.5784 300.747 43.0497 302.045 44.9537V27.8827H309.964ZM292.568 67.2823C294.386 67.2823 296.008 66.8279 297.436 65.9192C298.907 64.9672 300.033 63.6691 300.811 62.0247C301.634 60.3803 302.045 58.5196 302.045 56.4425C302.045 53.2837 301.158 50.7089 299.383 48.7184C297.609 46.6846 295.337 45.6677 292.568 45.6677C289.712 45.6677 287.375 46.6846 285.558 48.7184C283.74 50.7089 282.832 53.2837 282.832 56.4425C282.832 59.6014 283.74 62.1978 285.558 64.2316C287.375 66.2654 289.712 67.2823 292.568 67.2823ZM333.516 67.6718C335.247 67.6718 336.956 67.3472 338.644 66.6981C340.375 66.049 341.781 65.2052 342.863 64.1667L347.407 68.8401C345.979 70.3546 343.967 71.6096 341.37 72.6048C338.774 73.5568 336.242 74.0328 333.776 74.0328C330.574 74.0328 327.631 73.2755 324.948 71.761C322.265 70.2465 320.123 68.1478 318.522 65.4649C316.965 62.782 316.186 59.7529 316.186 56.3776C316.186 53.0457 316.943 50.0599 318.458 47.4202C319.972 44.7806 322.027 42.7035 324.624 41.189C327.263 39.6745 330.163 38.9172 333.322 38.9172C338.471 38.9172 342.495 40.6914 345.395 44.2397C348.337 47.7881 349.808 52.6346 349.808 58.7793H323.845C324.278 61.4622 325.359 63.6258 327.09 65.2701C328.821 66.8712 330.963 67.6718 333.516 67.6718ZM333.451 45.2782C331.071 45.2782 329.016 46.0355 327.285 47.5501C325.554 49.0213 324.429 51.0118 323.91 53.5217H342.149C341.76 51.0551 340.808 49.0646 339.293 47.5501C337.822 46.0355 335.875 45.2782 333.451 45.2782ZM363.39 46.0571C364.472 43.8503 366.073 42.1194 368.193 40.8645C370.314 39.5663 372.715 38.9172 375.398 38.9172V45.6677C371.807 45.6677 368.907 46.6413 366.7 48.5886C364.494 50.5359 363.39 53.1106 363.39 56.3127V73.2539H355.471V39.6961H363.39V46.0571ZM400.758 38.9172C403.7 38.9172 406.34 39.6745 408.677 41.189C411.013 42.6603 412.852 44.7373 414.194 47.4202C415.535 50.0599 416.206 53.0673 416.206 56.4425C416.206 59.8178 415.535 62.8469 414.194 65.5298C412.852 68.2127 411.013 70.3114 408.677 71.8259C406.34 73.2972 403.7 74.0328 400.758 74.0328C398.334 74.0328 396.106 73.5135 394.072 72.475C392.082 71.3932 390.437 69.9003 389.139 67.9963V73.2539H381.22V27.8827H389.139V44.9537C390.437 43.0497 392.082 41.5784 394.072 40.5399C396.106 39.4581 398.334 38.9172 400.758 38.9172ZM398.616 67.2823C401.472 67.2823 403.808 66.2654 405.626 64.2316C407.443 62.1978 408.352 59.6014 408.352 56.4425C408.352 53.2837 407.443 50.7089 405.626 48.7184C403.808 46.6846 401.472 45.6677 398.616 45.6677C395.846 45.6677 393.574 46.6846 391.8 48.7184C390.026 50.7089 389.139 53.2837 389.139 56.4425C389.139 58.5196 389.528 60.3803 390.307 62.0247C391.13 63.6691 392.255 64.9672 393.683 65.9192C395.154 66.8279 396.798 67.2823 398.616 67.2823ZM422.17 39.6961H430.089V73.2539H422.17V39.6961ZM426.129 34.6332C424.875 34.6332 423.793 34.1789 422.884 33.2701C422.019 32.3614 421.586 31.3012 421.586 30.0896C421.586 28.878 422.019 27.8394 422.884 26.974C423.793 26.0653 424.875 25.6109 426.129 25.6109C427.341 25.6109 428.38 26.0653 429.245 26.974C430.11 27.8394 430.543 28.878 430.543 30.0896C430.543 31.3012 430.11 32.3614 429.245 33.2701C428.38 34.1789 427.341 34.6332 426.129 34.6332ZM445.69 46.0571C446.772 43.8503 448.373 42.1194 450.493 40.8645C452.613 39.5663 455.015 38.9172 457.698 38.9172V45.6677C454.106 45.6677 451.207 46.6413 449 48.5886C446.793 50.5359 445.69 53.1106 445.69 56.3127V73.2539H437.771V39.6961H445.69V46.0571ZM495.164 27.8827V73.2539H487.245V67.9963C485.947 69.9003 484.281 71.3932 482.247 72.475C480.257 73.5135 478.05 74.0328 475.626 74.0328C472.684 74.0328 470.044 73.2972 467.708 71.8259C465.371 70.3114 463.532 68.2127 462.19 65.5298C460.849 62.8469 460.178 59.8178 460.178 56.4425C460.178 53.0673 460.849 50.0599 462.19 47.4202C463.532 44.7373 465.371 42.6603 467.708 41.189C470.044 39.6745 472.684 38.9172 475.626 38.9172C478.05 38.9172 480.257 39.4581 482.247 40.5399C484.281 41.5784 485.947 43.0497 487.245 44.9537V27.8827H495.164ZM477.768 67.2823C479.586 67.2823 481.209 66.8279 482.637 65.9192C484.108 64.9672 485.233 63.6691 486.012 62.0247C486.834 60.3803 487.245 58.5196 487.245 56.4425C487.245 53.2837 486.358 50.7089 484.584 48.7184C482.81 46.6846 480.538 45.6677 477.768 45.6677C474.912 45.6677 472.576 46.6846 470.758 48.7184C468.941 50.7089 468.032 53.2837 468.032 56.4425C468.032 59.6014 468.941 62.1978 470.758 64.2316C472.576 66.2654 474.912 67.2823 477.768 67.2823Z" fill="#FAFAFA"/>
<path d="M503.797 37.457C504.376 37.457 504.912 37.6024 505.403 37.8933C505.904 38.1841 506.298 38.5807 506.588 39.0831C506.887 39.5766 507.036 40.1142 507.036 40.6959C507.036 41.2775 506.887 41.8195 506.588 42.3219C506.298 42.8154 505.904 43.212 505.403 43.5117C504.912 43.8025 504.376 43.9479 503.797 43.9479C503.209 43.9479 502.665 43.8025 502.164 43.5117C501.673 43.212 501.278 42.8154 500.979 42.3219C500.69 41.8195 500.545 41.2775 500.545 40.6959C500.545 40.1142 500.69 39.5766 500.979 39.0831C501.278 38.5807 501.673 38.1841 502.164 37.8933C502.665 37.6024 503.209 37.457 503.797 37.457ZM503.797 43.472C504.297 43.472 504.758 43.3486 505.179 43.1018C505.609 42.8551 505.947 42.5202 506.193 42.0971C506.439 41.6653 506.562 41.1982 506.562 40.6959C506.562 40.1935 506.435 39.7308 506.18 39.3078C505.934 38.8848 505.601 38.5499 505.179 38.3031C504.758 38.0563 504.297 37.9329 503.797 37.9329C503.297 37.9329 502.831 38.0563 502.401 38.3031C501.98 38.5499 501.642 38.8848 501.388 39.3078C501.142 39.7308 501.019 40.1935 501.019 40.6959C501.019 41.1982 501.142 41.6609 501.388 42.0839C501.642 42.507 501.98 42.8463 502.401 43.1018C502.831 43.3486 503.297 43.472 503.797 43.472ZM505.548 40.101C505.548 40.4006 505.469 40.665 505.311 40.8942C505.162 41.1145 504.956 41.2731 504.692 41.3701L505.614 42.692H504.626L503.784 41.489H503.178V42.692H502.191V38.7261H504.047C504.495 38.7261 504.855 38.8539 505.127 39.1095C505.408 39.3563 505.548 39.6868 505.548 40.101ZM503.178 40.5108H503.942C504.109 40.5108 504.245 40.4755 504.35 40.405C504.455 40.3257 504.508 40.2244 504.508 40.101C504.508 39.9864 504.455 39.8939 504.35 39.8234C504.245 39.744 504.109 39.7044 503.942 39.7044H503.178V40.5108Z" fill="#FAFAFA"/>
</g>
<defs>
<filter id="filter0_f_4405_21141" x="26.0802" y="35.6642" width="44.2478" height="25.6931" filterUnits="userSpaceOnUse" color-interpolation-filters="sRGB">
<feFlood flood-opacity="0" result="BackgroundImageFix"/>
<feBlend mode="normal" in="SourceGraphic" in2="BackgroundImageFix" result="shape"/>
<feGaussianBlur stdDeviation="2.07708" result="effect1_foregroundBlur_4405_21141"/>
</filter>
<linearGradient id="paint0_linear_4405_21141" x1="18.9458" y1="20.0937" x2="82.7589" y2="79.6155" gradientUnits="userSpaceOnUse">
<stop stop-color="#1B91F3"/>
<stop offset="1" stop-color="#0B68CB"/>
</linearGradient>
<radialGradient id="paint1_radial_4405_21141" cx="0" cy="0" r="1" gradientUnits="userSpaceOnUse" gradientTransform="translate(18.8288 40.5746) rotate(66.5177) scale(38.2776 36.6685)">
<stop offset="0.53" stop-color="#0B4186" stop-opacity="0"/>
<stop offset="1" stop-color="#0B4186" stop-opacity="0.45"/>
</radialGradient>
<radialGradient id="paint2_radial_4405_21141" cx="0" cy="0" r="1" gradientUnits="userSpaceOnUse" gradientTransform="translate(49.6644 24.8532) rotate(-127.997) scale(8.18295 13.541)">
<stop stop-color="#EF3ACC" stop-opacity="0"/>
<stop offset="1" stop-color="#EF3ACC" stop-opacity="0.64"/>
</radialGradient>
<linearGradient id="paint3_linear_4405_21141" x1="36.7014" y1="35.3306" x2="59.6632" y2="9.76912" gradientUnits="userSpaceOnUse">
<stop stop-color="#0F5DB0"/>
<stop offset="1" stop-color="#0F5DB0" stop-opacity="0"/>
</linearGradient>
<radialGradient id="paint4_radial_4405_21141" cx="0" cy="0" r="1" gradientUnits="userSpaceOnUse" gradientTransform="translate(31.4281 71.2451) rotate(-64.2624) scale(59.7152 73.7659)">
<stop offset="0.02" stop-color="#094188"/>
<stop offset="0.97" stop-color="#0B4186" stop-opacity="0"/>
</radialGradient>
<linearGradient id="paint5_linear_4405_21141" x1="76.9425" y1="53.8386" x2="66.266" y2="80.0531" gradientUnits="userSpaceOnUse">
<stop stop-color="#E247C4" stop-opacity="0"/>
<stop offset="1" stop-color="#E247C4" stop-opacity="0.64"/>
</linearGradient>
<linearGradient id="paint6_linear_4405_21141" x1="10.7363" y1="30.3283" x2="20.1427" y2="68.1868" gradientUnits="userSpaceOnUse">
<stop offset="0.1" stop-color="#EF3ACC"/>
<stop offset="1" stop-color="#EF3ACC" stop-opacity="0"/>
</linearGradient>
<linearGradient id="paint7_linear_4405_21141" x1="48.5004" y1="35.3938" x2="48.5004" y2="73.6765" gradientUnits="userSpaceOnUse">
<stop stop-color="white"/>
<stop offset="0.91" stop-color="#BEE1FE"/>
<stop offset="1" stop-color="#96CEFD"/>
</linearGradient>
<linearGradient id="paint8_linear_4405_21141" x1="49.2172" y1="57.0578" x2="49.2172" y2="73.0952" gradientUnits="userSpaceOnUse">
<stop stop-color="#BCE0FD"/>
<stop offset="1" stop-color="#88CCFC"/>
</linearGradient>
<clipPath id="clip0_4405_21141">
<rect width="390" height="76" fill="white" transform="translate(117.336 10.5)"/>
</clipPath>
</defs>
</svg>
