<svg width="1343" height="451" viewBox="0 0 1343 451" fill="none" xmlns="http://www.w3.org/2000/svg">
<path d="M149.883 100.652L149.918 100.652C161.302 60.8548 210.909 41.4258 261.461 41.4258C296.388 41.4258 327.75 52.4879 349.245 70.0424C335.929 70.7025 323.261 73.3078 311.666 77.5129C329.034 83.9655 343.956 93.8996 355.016 106.189C347.679 104.921 340.068 104.254 332.265 104.254C331.423 104.254 330.584 104.262 329.747 104.277C349.84 133.41 361.606 168.728 361.606 206.795C361.606 306.637 280.668 387.574 180.827 387.574C82.5236 387.574 0.046875 305.266 0.046875 206.795C0.046875 191.243 2.11692 175.18 6.12845 160.125C7.17786 156.963 8.64561 153.93 10.5947 152.821C13.0341 151.432 15.2513 155.572 15.6104 156.92C18.2597 166.867 21.8291 176.487 26.232 185.702C25.8476 165.059 34.6637 146.263 46.7952 129.999C54.8813 119.159 62.3773 109.109 65.8393 80.1183C66.0717 78.1722 67.9172 76.7714 69.7798 77.3812C96.1038 85.9996 110.176 129.83 107.985 166.481C122.527 168.56 122.46 153.37 122.46 153.37C117.812 139.085 120.911 112.531 149.836 100.652L149.883 100.652Z" fill="url(#paint0_linear_2036_8)"/>
<path opacity="0.9" d="M355.692 160.758C360.088 260.188 278.35 345.91 178.675 345.91C85.3693 345.91 8.90787 273.792 1.99197 182.257C0.773398 190.713 0.113776 199.35 0.0517578 208.129C0.759852 306.082 83.0368 387.574 180.827 387.574C280.668 387.574 361.606 306.637 361.606 206.795C361.606 190.886 359.551 175.456 355.692 160.758Z" fill="url(#paint1_radial_2036_8)"/>
<path d="M176.422 113.828C174.473 110.381 165.48 105.284 161.551 104.395C176.422 56.7481 252.208 42.1196 298.591 50.55C317.891 54.0578 341.933 64.5808 349.244 70.0424C327.75 52.4879 296.388 41.4258 261.461 41.4258C210.909 41.4258 161.302 60.8548 149.918 100.652L149.883 100.652L149.835 100.652C120.911 112.531 117.815 139.094 122.464 153.378C126.924 136.339 148.16 115.4 176.422 113.828Z" fill="url(#paint2_radial_2036_8)"/>
<path d="M228.956 80.9229C188.348 88.9129 175.077 91.5241 161.485 104.444C176.75 64.0338 215.713 55.8464 262.138 74.2644C249.36 76.9081 238.416 79.0615 228.956 80.9229Z" fill="url(#paint3_linear_2036_8)"/>
<path d="M9.86025 154.59C-1.23333 200.011 7.33892 253.398 57.7399 298.2C42.7347 281.794 24.4178 221.206 64.8431 177.919C67.5663 175.003 72.2512 177.149 72.3989 181.136C75.7293 271.09 148.319 326.032 232.002 315.757C206.072 314.301 120.322 284.268 184.109 272.385C217.452 266.174 269.73 256.434 269.73 209.531C269.73 133.486 210.932 111.253 175.28 114.561C150.878 116.825 129.161 132.308 122.475 153.364C125.04 161.666 114.812 167.479 107.985 166.504C110.176 129.852 96.1039 85.9991 69.7799 77.3806C67.9173 76.7708 66.0718 78.1717 65.8394 80.1177C62.3774 109.109 54.8814 119.158 46.7953 129.998C34.6638 146.262 25.8477 165.059 26.2321 185.701C21.8292 176.487 18.2598 166.866 15.6105 156.92C15.3131 155.803 13.6987 152.692 11.7445 152.546C10.6867 152.466 10.1267 153.499 9.86025 154.59Z" fill="url(#paint4_radial_2036_8)"/>
<path d="M161.71 276.989C210.798 316.846 309.521 286.965 309.521 190.048C269.664 250.464 218.901 292.134 161.71 276.989Z" fill="url(#paint5_linear_2036_8)"/>
<path d="M64.8417 177.92C65.8781 176.81 67.1997 176.429 68.4487 176.603C32.2616 220.735 61.4475 298.251 81.4799 317.292C82.5992 320.463 62.4782 303.974 59.7034 300.112C44.4673 287.185 22.6295 223.12 64.8417 177.92Z" fill="url(#paint6_linear_2036_8)"/>
<path d="M180.825 280.639C229.927 280.639 269.733 248.159 269.733 208.094C269.733 168.029 229.927 135.55 180.825 135.55C138.935 135.55 91.9016 162.802 91.917 209.153C91.9408 280.781 167.609 321.987 232.11 315.749C227.265 315.187 197.041 313.582 176.612 290.472C174.769 288.388 171.571 284.754 173.022 282.392C174.472 280.029 178.458 280.639 180.825 280.639Z" fill="url(#paint7_linear_2036_8)"/>
<path opacity="0.7" d="M180.825 280.639C229.927 280.639 269.733 248.16 269.733 208.095C269.733 195.861 266.021 184.335 259.467 174.225L188.902 238.316C183.974 242.791 175.674 242.791 170.746 238.316L101.493 175.417C95.4667 185.105 91.9128 196.407 91.917 209.154C91.9408 280.782 167.609 321.988 232.11 315.75C231.817 315.716 231.433 315.678 230.963 315.632L230.962 315.632C223.649 314.915 195.807 312.186 176.612 290.472C174.769 288.388 171.571 284.755 173.022 282.392C174.24 280.409 177.246 280.52 179.579 280.607C180.025 280.624 180.445 280.639 180.825 280.639Z" fill="url(#paint8_linear_2036_8)"/>
<g filter="url(#filter0_f_2036_8)">
<path fill-rule="evenodd" clip-rule="evenodd" d="M160.188 238.741C147.094 225.113 107.877 179.845 107.877 179.845L110.913 179.975L172.303 225.829C176.902 229.169 183.458 229.136 188.016 225.748L248.214 180.034L251.41 179.786C251.41 179.786 213.476 223.982 198.946 238.543C184.417 253.104 173.281 252.369 160.188 238.741Z" fill="#458FCD"/>
</g>
<path d="M189.553 242.461L259.975 175.224C245.065 152.222 217.562 135.55 180.868 135.55C150.501 135.55 117.394 149.875 101.504 175.412L169.719 242.461C174.646 246.937 184.625 246.937 189.553 242.461Z" fill="url(#paint9_linear_2036_8)"/>
<path opacity="0.6" d="M260.048 175.136L189.784 242.366C183.548 246.796 176.911 247.122 170.357 243.099L101.449 175.378C103.39 172.249 105.601 169.25 108.056 166.402C110.539 168.724 112.943 170.976 115.289 173.173C133.392 190.129 148.024 203.834 168.647 221.435C177.957 229.381 180.85 229.224 189.977 221.435C213.575 201.294 230.828 186.052 253.263 166.023C255.786 168.911 258.057 171.955 260.048 175.136Z" fill="white"/>
<path d="M193.299 99.264C202.813 96.2679 201.981 86.8486 201.981 86.8486C201.981 86.8486 197.22 81.2482 187.794 84.3522C178.97 87.258 177.603 93.5406 177.603 93.5406C177.603 93.5406 182.423 102.689 193.299 99.264Z" fill="white"/>
<path d="M443.095 36.1474H407.636V17.7736H498.538V36.1474H463.241V128.5H443.095V36.1474ZM560.054 43.239C566.071 43.239 571.39 44.6359 576.01 47.4296C580.738 50.1158 584.391 53.9302 586.97 58.8729C589.656 63.7081 590.999 69.2418 590.999 75.4738V128.5H571.82V79.342C571.82 73.6472 570.208 69.0269 566.984 65.481C563.761 61.8278 559.57 60.0011 554.413 60.0011C548.718 60.0011 543.883 61.774 539.907 65.3199C536.039 68.7582 534.105 73.0025 534.105 78.0526V128.5H514.442V15.8395H534.105V56.4553C536.684 52.4797 540.283 49.3099 544.903 46.946C549.524 44.4747 554.574 43.239 560.054 43.239ZM683.027 45.1731V128.5H663.203V117.54C660.624 121.516 657.024 124.686 652.404 127.049C647.891 129.306 642.895 130.434 637.415 130.434C631.398 130.434 626.025 129.091 621.297 126.405C616.677 123.611 613.024 119.797 610.338 114.961C607.759 110.019 606.469 104.431 606.469 98.1993V45.1731H625.488V94.3311C625.488 100.026 627.1 104.7 630.323 108.353C633.654 111.899 637.898 113.672 643.056 113.672C648.751 113.672 653.532 111.953 657.4 108.514C661.268 104.969 663.203 100.671 663.203 95.6205V45.1731H683.027ZM746.707 43.239C752.724 43.239 758.097 44.6359 762.824 47.4296C767.552 50.1158 771.205 53.9302 773.784 58.8729C776.47 63.7081 777.814 69.2418 777.814 75.4738V128.5H758.634V79.342C758.634 73.6472 756.968 69.0269 753.637 65.481C750.414 61.8278 746.223 60.0011 741.066 60.0011C735.371 60.0011 730.59 61.774 726.721 65.3199C722.853 68.7582 720.919 73.0025 720.919 78.0526V128.5H701.256V45.1731H720.919V56.133C723.498 52.1573 727.044 49.0413 731.557 46.7849C736.177 44.421 741.227 43.239 746.707 43.239ZM877.274 15.8395V128.5H857.611V115.445C854.387 120.173 850.251 123.88 845.201 126.566C840.258 129.145 834.778 130.434 828.761 130.434C821.454 130.434 814.9 128.607 809.098 124.954C803.295 121.193 798.729 115.982 795.398 109.32C792.067 102.658 790.401 95.137 790.401 86.756C790.401 78.3749 792.067 70.9072 795.398 64.3528C798.729 57.691 803.295 52.5334 809.098 48.8801C814.9 45.1194 821.454 43.239 828.761 43.239C834.778 43.239 840.258 44.5822 845.201 47.2684C850.251 49.8472 854.387 53.5004 857.611 58.2282V15.8395H877.274ZM834.08 113.672C838.592 113.672 842.622 112.544 846.168 110.287C849.821 107.923 852.615 104.7 854.549 100.617C856.59 96.5339 857.611 91.9135 857.611 86.756C857.611 78.9122 855.408 72.519 851.003 67.5763C846.597 62.5262 840.956 60.0011 834.08 60.0011C826.988 60.0011 821.186 62.5262 816.673 67.5763C812.16 72.519 809.903 78.9122 809.903 86.756C809.903 94.5998 812.16 101.047 816.673 106.097C821.186 111.147 826.988 113.672 834.08 113.672ZM934.952 114.639C939.25 114.639 943.494 113.833 947.684 112.221C951.982 110.61 955.474 108.514 958.161 105.936L969.443 117.54C965.897 121.301 960.901 124.417 954.454 126.888C948.007 129.252 941.721 130.434 935.596 130.434C927.645 130.434 920.339 128.554 913.677 124.793C907.015 121.032 901.696 115.821 897.721 109.159C893.852 102.497 891.918 94.9758 891.918 86.5948C891.918 78.3212 893.799 70.9072 897.559 64.3528C901.32 57.7984 906.424 52.6409 912.871 48.8801C919.425 45.1194 926.624 43.239 934.468 43.239C947.255 43.239 957.247 47.6445 964.446 56.4553C971.753 65.2661 975.406 77.3005 975.406 92.5582H910.937C912.011 99.2201 914.697 104.593 918.995 108.676C923.293 112.651 928.612 114.639 934.952 114.639ZM934.79 59.0341C928.881 59.0341 923.777 60.9144 919.479 64.6752C915.181 68.3284 912.387 73.2711 911.098 79.5032H956.388C955.421 73.3786 953.057 68.4359 949.296 64.6752C945.643 60.9144 940.808 59.0341 934.79 59.0341ZM1008.32 60.9682C1011.01 55.4883 1014.99 51.1903 1020.25 48.0743C1025.52 44.8508 1031.48 43.239 1038.14 43.239V60.0011C1029.22 60.0011 1022.02 62.4187 1016.54 67.2539C1011.06 72.0892 1008.32 78.4824 1008.32 86.4336V128.5H988.662V45.1731H1008.32V60.9682ZM1100.31 43.239C1107.61 43.239 1114.17 45.1194 1119.97 48.8801C1125.77 52.5334 1130.34 57.691 1133.67 64.3528C1137 70.9072 1138.67 78.3749 1138.67 86.756C1138.67 95.137 1137 102.658 1133.67 109.32C1130.34 115.982 1125.77 121.193 1119.97 124.954C1114.17 128.607 1107.61 130.434 1100.31 130.434C1094.29 130.434 1088.76 129.145 1083.71 126.566C1078.76 123.88 1074.68 120.173 1071.46 115.445V128.5H1051.79V15.8395H1071.46V58.2282C1074.68 53.5004 1078.76 49.8472 1083.71 47.2684C1088.76 44.5822 1094.29 43.239 1100.31 43.239ZM1094.99 113.672C1102.08 113.672 1107.88 111.147 1112.39 106.097C1116.91 101.047 1119.16 94.5998 1119.16 86.756C1119.16 78.9122 1116.91 72.519 1112.39 67.5763C1107.88 62.5262 1102.08 60.0011 1094.99 60.0011C1088.11 60.0011 1082.47 62.5262 1078.06 67.5763C1073.66 72.519 1071.46 78.9122 1071.46 86.756C1071.46 91.9135 1072.42 96.5339 1074.36 100.617C1076.4 104.7 1079.19 107.923 1082.74 110.287C1086.39 112.544 1090.47 113.672 1094.99 113.672ZM1152.67 45.1731H1172.33V128.5H1152.67V45.1731ZM1162.5 32.6016C1159.38 32.6016 1156.7 31.4734 1154.44 29.2169C1152.29 26.9605 1151.22 24.328 1151.22 21.3194C1151.22 18.3108 1152.29 15.7321 1154.44 13.5831C1156.7 11.3266 1159.38 10.1984 1162.5 10.1984C1165.51 10.1984 1168.09 11.3266 1170.24 13.5831C1172.39 15.7321 1173.46 18.3108 1173.46 21.3194C1173.46 24.328 1172.39 26.9605 1170.24 29.2169C1168.09 31.4734 1165.51 32.6016 1162.5 32.6016ZM1210.26 60.9682C1212.95 55.4883 1216.93 51.1903 1222.19 48.0743C1227.46 44.8508 1233.42 43.239 1240.08 43.239V60.0011C1231.16 60.0011 1223.96 62.4187 1218.48 67.2539C1213 72.0892 1210.26 78.4824 1210.26 86.4336V128.5H1190.6V45.1731H1210.26V60.9682ZM1332.31 15.8395V128.5H1312.64V115.445C1309.42 120.173 1305.28 123.88 1300.23 126.566C1295.29 129.145 1289.81 130.434 1283.79 130.434C1276.49 130.434 1269.93 128.607 1264.13 124.954C1258.33 121.193 1253.76 115.982 1250.43 109.32C1247.1 102.658 1245.43 95.137 1245.43 86.756C1245.43 78.3749 1247.1 70.9072 1250.43 64.3528C1253.76 57.691 1258.33 52.5334 1264.13 48.8801C1269.93 45.1194 1276.49 43.239 1283.79 43.239C1289.81 43.239 1295.29 44.5822 1300.23 47.2684C1305.28 49.8472 1309.42 53.5004 1312.64 58.2282V15.8395H1332.31ZM1289.11 113.672C1293.63 113.672 1297.65 112.544 1301.2 110.287C1304.85 107.923 1307.65 104.7 1309.58 100.617C1311.62 96.5339 1312.64 91.9135 1312.64 86.756C1312.64 78.9122 1310.44 72.519 1306.04 67.5763C1301.63 62.5262 1295.99 60.0011 1289.11 60.0011C1282.02 60.0011 1276.22 62.5262 1271.71 67.5763C1267.19 72.519 1264.94 78.9122 1264.94 86.756C1264.94 94.5998 1267.19 101.047 1271.71 106.097C1276.22 111.147 1282.02 113.672 1289.11 113.672Z" fill="#FAFAFA"/>
<path fill-rule="evenodd" clip-rule="evenodd" d="M637.246 169.093C637.246 167.758 636.164 166.676 634.829 166.676H621.453C620.118 166.676 619.036 167.758 619.036 169.093V369.566C619.036 370.901 620.118 371.983 621.453 371.983H634.829C636.164 371.983 637.246 370.901 637.246 369.566V169.093ZM548.253 176.662C539.833 172.354 530.238 170.2 519.469 170.2H432.303C430.968 170.2 429.886 171.283 429.886 172.618V369.566C429.886 370.901 430.968 371.983 432.303 371.983H522.993C534.546 371.983 544.826 369.633 553.834 364.934C563.037 360.234 570.184 353.674 575.275 345.255C580.366 336.835 582.911 327.338 582.911 316.764C582.911 305.799 579.68 295.813 573.219 286.805C567.648 278.872 560.259 272.466 551.051 267.588C549.253 266.636 549.193 263.962 550.938 262.915C566.967 253.296 574.981 239.133 574.981 220.426C574.981 210.831 572.631 202.215 567.932 194.579C563.232 186.942 556.673 180.97 548.253 176.662ZM545.022 247.741C537.777 254.399 528.378 257.728 516.825 257.728H451.101C449.766 257.728 448.684 256.645 448.684 255.31V189.947C448.684 188.612 449.766 187.53 451.101 187.53H515.651C527.595 187.53 537.288 190.858 544.728 197.516C552.365 203.978 556.183 212.3 556.183 222.482C556.183 232.664 552.463 241.084 545.022 247.741ZM551.484 343.492C543.064 350.933 532.294 354.654 519.175 354.654H451.101C449.766 354.654 448.684 353.571 448.684 352.236V277.474C448.684 276.139 449.766 275.057 451.101 275.057H519.175C532.294 275.057 543.064 278.777 551.484 286.218C559.904 293.659 564.114 303.155 564.114 314.708C564.114 326.261 559.904 335.856 551.484 343.492ZM745.494 375.507C731.396 375.507 718.277 371.885 706.136 364.64C694.192 357.395 684.695 347.702 677.646 335.562C670.597 323.422 667.072 310.205 667.072 295.91C667.072 281.616 670.597 268.399 677.646 256.259C684.695 244.119 694.192 234.524 706.136 227.475C718.277 220.23 731.396 216.607 745.494 216.607C759.593 216.607 772.614 220.23 784.558 227.475C796.699 234.524 806.293 244.119 813.342 256.259C820.392 268.399 823.916 281.616 823.916 295.91C823.916 310.205 820.392 323.422 813.342 335.562C806.293 347.702 796.699 357.395 784.558 364.64C772.614 371.885 759.593 375.507 745.494 375.507ZM992.584 355.828V222.549C992.584 221.214 991.502 220.132 990.167 220.132H976.791C975.456 220.132 974.374 221.214 974.374 222.549V239.739C974.374 242.223 970.838 243.231 969.329 241.257C964.2 234.548 957.951 229.17 950.583 225.125C940.597 219.447 929.24 216.607 916.512 216.607C903.589 216.607 891.84 219.74 881.266 226.006C870.888 232.272 862.664 240.888 856.594 251.853C850.72 262.819 847.783 275.057 847.783 288.568C847.783 302.274 850.72 314.61 856.594 325.576C862.664 336.541 870.888 345.157 881.266 351.423C891.84 357.689 903.589 360.822 916.512 360.822C929.044 360.822 940.303 357.982 950.289 352.304C957.81 348.11 964.156 342.634 969.326 335.876C970.836 333.903 974.374 334.913 974.374 337.397V355.828C974.374 371.297 969.283 383.438 959.101 392.249C948.919 401.256 935.114 405.76 917.687 405.76C908.092 405.76 898.693 404.096 889.49 400.767C881.558 398.008 874.688 394.261 868.882 389.528C867.678 388.546 865.856 388.843 865.097 390.198L859.322 400.512C858.76 401.515 858.979 402.778 859.874 403.5C866.683 408.989 875.185 413.463 885.378 416.921C896.539 420.642 907.994 422.502 919.743 422.502C933.841 422.502 946.373 419.662 957.339 413.984C968.5 408.305 977.115 400.375 983.185 390.193C989.451 380.207 992.584 368.752 992.584 355.828ZM947.646 337.031C939.422 341.73 930.121 344.08 919.743 344.08C909.757 344.08 900.652 341.73 892.427 337.031C884.399 332.135 878.035 325.478 873.336 317.058C868.832 308.442 866.581 298.946 866.581 288.568C866.581 278.19 868.832 268.791 873.336 260.371C878.035 251.951 884.399 245.391 892.427 240.692C900.652 235.797 909.757 233.349 919.743 233.349C930.121 233.349 939.422 235.699 947.646 240.398C956.066 245.098 962.625 251.657 967.325 260.077C972.024 268.497 974.374 277.994 974.374 288.568C974.374 299.337 972.024 308.932 967.325 317.352C962.625 325.772 956.066 332.331 947.646 337.031ZM804.65 287.807C804.65 315.65 779.869 342.856 745.745 342.856C745.482 342.856 745.189 342.845 744.88 342.834C743.258 342.773 741.169 342.696 740.323 344.074C739.315 345.716 741.537 348.241 742.817 349.689C743.764 350.76 744.532 351.667 745.201 352.458C747.428 355.088 748.566 356.433 751.565 358.233C753.533 359.414 753.11 361.941 750.819 361.808C729.752 360.581 683.231 343.163 683.231 294.694C683.22 262.483 710.124 232.744 742.817 232.744C776.941 232.744 804.65 259.964 804.65 287.807Z" fill="url(#paint10_linear_2036_8)"/>
<path fill-rule="evenodd" clip-rule="evenodd" d="M793.784 319.197C793.677 319.295 793.58 319.402 793.493 319.517C783.057 333.192 766.056 342.831 745.745 342.831C745.481 342.831 745.189 342.82 744.879 342.808C743.258 342.748 741.169 342.67 740.322 344.049C739.756 344.972 740.21 346.173 740.943 347.306C741.2 347.702 741.59 347.988 742.034 348.145C773.322 359.205 817.351 340.465 821.831 292.878C822.056 290.491 819.045 289.509 817.659 291.466C810.225 301.968 802.244 311.396 793.784 319.197Z" fill="url(#paint11_linear_2036_8)"/>
<defs>
<filter id="filter0_f_2036_8" x="91.349" y="163.258" width="176.589" height="102.485" filterUnits="userSpaceOnUse" color-interpolation-filters="sRGB">
<feFlood flood-opacity="0" result="BackgroundImageFix"/>
<feBlend mode="normal" in="SourceGraphic" in2="BackgroundImageFix" result="shape"/>
<feGaussianBlur stdDeviation="8.2642" result="effect1_foregroundBlur_2036_8"/>
</filter>
<linearGradient id="paint0_linear_2036_8" x1="62.7937" y1="101.011" x2="317.638" y2="338.724" gradientUnits="userSpaceOnUse">
<stop stop-color="#1B91F3"/>
<stop offset="1" stop-color="#0B68CB"/>
</linearGradient>
<radialGradient id="paint1_radial_2036_8" cx="0" cy="0" r="1" gradientUnits="userSpaceOnUse" gradientTransform="translate(62.3245 182.804) rotate(66.5179) scale(152.866 146.441)">
<stop offset="0.525579" stop-color="#0B4186" stop-opacity="0"/>
<stop offset="1" stop-color="#0B4186" stop-opacity="0.45"/>
</radialGradient>
<radialGradient id="paint2_radial_2036_8" cx="0" cy="0" r="1" gradientUnits="userSpaceOnUse" gradientTransform="translate(185.474 120.021) rotate(-127.994) scale(32.6803 54.0779)">
<stop stop-color="#A29CF6" stop-opacity="0"/>
<stop offset="1" stop-color="#A39BF6"/>
</radialGradient>
<linearGradient id="paint3_linear_2036_8" x1="133.704" y1="161.864" x2="225.406" y2="59.7801" gradientUnits="userSpaceOnUse">
<stop stop-color="#0F5DB0"/>
<stop offset="1" stop-color="#0F5DB0" stop-opacity="0"/>
</linearGradient>
<radialGradient id="paint4_radial_2036_8" cx="0" cy="0" r="1" gradientUnits="userSpaceOnUse" gradientTransform="translate(112.647 305.292) rotate(-64.2627) scale(238.484 294.597)">
<stop offset="0.0160882" stop-color="#094188"/>
<stop offset="0.967387" stop-color="#0B4186" stop-opacity="0"/>
</radialGradient>
<linearGradient id="paint5_linear_2036_8" x1="294.416" y1="235.779" x2="264.987" y2="318.095" gradientUnits="userSpaceOnUse">
<stop stop-color="#7B8BE9" stop-opacity="0"/>
<stop offset="1" stop-color="#7B8BE9"/>
</linearGradient>
<linearGradient id="paint6_linear_2036_8" x1="40.3347" y1="176.321" x2="65.073" y2="294.04" gradientUnits="userSpaceOnUse">
<stop offset="0.104632" stop-color="#C59FF9"/>
<stop offset="1" stop-color="#C59FF9" stop-opacity="0"/>
</linearGradient>
<linearGradient id="paint7_linear_2036_8" x1="180.828" y1="162.117" x2="180.828" y2="315.004" gradientUnits="userSpaceOnUse">
<stop stop-color="white"/>
<stop offset="0.90535" stop-color="#BEE1FE"/>
<stop offset="1" stop-color="#96CEFD"/>
</linearGradient>
<linearGradient id="paint8_linear_2036_8" x1="183.687" y1="248.633" x2="183.687" y2="312.68" gradientUnits="userSpaceOnUse">
<stop stop-color="#BCE0FD"/>
<stop offset="1" stop-color="#88CCFC"/>
</linearGradient>
<linearGradient id="paint9_linear_2036_8" x1="180.529" y1="151.142" x2="180.74" y2="318.931" gradientUnits="userSpaceOnUse">
<stop stop-color="white"/>
<stop offset="0.90535" stop-color="#BEE1FE"/>
<stop offset="1" stop-color="#96CEFD"/>
</linearGradient>
<linearGradient id="paint10_linear_2036_8" x1="711.235" y1="166.676" x2="711.235" y2="422.502" gradientUnits="userSpaceOnUse">
<stop stop-color="#4CB1F9"/>
<stop offset="1" stop-color="#1373D9"/>
</linearGradient>
<linearGradient id="paint11_linear_2036_8" x1="812.247" y1="317.138" x2="796.155" y2="366.082" gradientUnits="userSpaceOnUse">
<stop stop-color="#7B8BE9" stop-opacity="0"/>
<stop offset="1" stop-color="#7B8BE9"/>
</linearGradient>
</defs>
</svg>